<svg xmlns="http://www.w3.org/2000/svg" width="328.925" height="252.773" viewBox="0 0 328.925 252.773">
  <g id="hjertet" transform="translate(-77.843 -231.514)">
    <g id="Group_2" data-name="Group 2" transform="translate(149.053 245.895)">
      <g id="Group_1" data-name="Group 1">
        <path id="Path_1" data-name="Path 1" d="M266.289,439.265c1.63-3.276,3.129-6.646,4.907-9.813,6.622-11.793,15.031-21.125,26.179-27.53,19.534-11.211,37.3-25.287,50.107-46.233,10.031-16.42,15.124-34.8,12.663-54.719-2.834-22.926-15.178-44.23-37.08-49.8-13.493-3.424-25.8,1.048-35.869,11.327-7.616,7.772-13.936,17.22-20.357,25.318-6.949-7.857-13.967-16.987-22.034-24.642-11.863-11.25-25.923-14.231-40.783-9.891-12.4,3.626-20.582,13.532-26.909,25.869-13.61,26.537-7.29,50.721,6.8,73.686,10.442,17.01,24.394,29.8,39.634,40.775,11.987,8.641,24.5,16.583,33.493,29.58,3.385,4.891,5.784,10.683,8.633,16.071" transform="translate(-169.564 -250.037)" fill="#c44c06" stroke="#c44c06" stroke-linecap="round" stroke-linejoin="round" stroke-miterlimit="10" stroke-width="2"/>
      </g>
    </g>
    <g id="Group_4" data-name="Group 4" transform="translate(362.315 231.514)">
      <g id="Group_3" data-name="Group 3">
        <path id="Path_2" data-name="Path 2" d="M486.5,348.239q.664,48.76,1.343,97.52c.07,4.821.458,9.643.784,14.456.248,3.649.062,7.244-2.974,10.59a18.017,18.017,0,0,1-9.852,5.334c-6.25,1.405-12.026.427-15.8-2.725a13.571,13.571,0,0,1-4.5-6.886,26.85,26.85,0,0,1-1.134-8.843q2.352-43.555,4.651-87.117c.295-5.59.575-11.18,1.048-16.762.116-1.405-.6-2.321-2.515-3.206-3.983-1.832-7.725-3.835-11.638-5.714-1.141-.551-1.623-1.11-1.607-1.956.458-22.142-.986-44.292,1.141-66.427,1.064-11.063,3.641-21.933,12.275-32.072a53.308,53.308,0,0,1,13.012-11.04,11.068,11.068,0,0,1,7.958-1.724c3.595.575,5.264,2.073,5.753,4.107a18.409,18.409,0,0,1,.6,4.084Q485.748,294.056,486.5,348.239Zm-4.511,2.647h-.062q-.71-44.253-1.444-88.5c-.155-8.548.186-17.1-.745-25.644-.1-.939-.054-1.964-1.964-2.352-1.972-.4-3,.512-4.084,1.2a47.8,47.8,0,0,0-15.962,16.086c-6.258,10.365-7.29,21.172-8.028,31.956-1.328,19.293-.388,38.6-.629,57.9-.008.846.45,1.436,1.576,1.98,3.835,1.848,7.523,3.8,11.444,5.6,2.088.955,2.818,1.972,2.733,3.5-1.04,17.973-1.956,35.954-2.9,53.927-.73,13.812-1.537,27.623-2.127,41.435-.233,5.365-1.2,10.737-.248,16.11.481,2.741,1.266,5.458,4.216,7.764,3.463,2.7,7.531,3.036,12.259,1.064,4.511-1.879,6.584-4.5,7.391-7.554,1.227-4.651.132-9.309.062-13.959Q482.7,401.145,481.99,350.886Z" transform="translate(-444.253 -231.514)" fill="#fff9e4"/>
      </g>
    </g>
    <g id="Group_6" data-name="Group 6" transform="translate(77.843 238.341)">
      <g id="Group_5" data-name="Group 5">
        <path id="Path_3" data-name="Path 3" d="M92.693,294.26c.606-7.484,1.18-14.689,1.762-21.9.784-9.689,1.607-19.386,2.337-29.075.116-1.491,1.266-2.306,3.665-2.345,2.6-.047,2.71,1.118,2.787,2.29q1.805,26.575,3.672,53.151c.047.66-.233,1.4.753,1.964,1.258-.225.753-.862.792-1.3q2.329-26.738,4.612-53.477c.054-.66-.3-1.436,1.064-1.832a6.59,6.59,0,0,1,3.812-.5c1.529.4,1.529,1.227,1.576,2.057.4,7.624.784,15.24,1.219,22.864q.769,13.59,1.592,27.189c.023.342.093.675.171,1.188,1.079-.59.854-1.25.924-1.817q2.713-24.025,5.4-48.065c.062-.567-.062-1.149.512-1.677a4.536,4.536,0,0,1,3.579-1.2,2.714,2.714,0,0,1,2.64,1.63,4.138,4.138,0,0,1,.186,1.716q0,31.024-.016,62.048c0,3.9-.6,7.733-3.362,11.335a17.256,17.256,0,0,1-9.441,6.126c-2,.567-2.539,1.266-2.5,2.531q.757,22.441,1.351,44.882,1.234,44.184,2.43,88.375a42.143,42.143,0,0,1-.582,8.657,13.544,13.544,0,0,1-4.658,7.756c-5.893,5.217-17.523,4.876-22.662-.621a13.515,13.515,0,0,1-3.579-10.062c.163-9.938.45-19.867.776-29.805.543-16.4,1.149-32.8,1.731-49.207q1.06-29.883,2.166-59.773c.054-1.351-.4-2.088-2.686-2.748-9.464-2.71-13.664-7.748-16-13.517-1.607-3.96-.528-7.95-.318-11.91.986-18.765,2.151-37.522,3.222-56.287.054-.908.171-1.661,1.747-2.158,2.772-.885,4.519-.373,4.658,1.506q.9,12.03,1.739,24.068.943,13.16,1.879,26.319C91.676,293.1,91.474,293.646,92.693,294.26Zm-8.261-40.084-.419.07a15.112,15.112,0,0,0-.256,1.537c-.978,17.142-2.05,34.285-2.88,51.427-.318,6.529,7.189,13.54,16.622,15.636,2.865.637,3.408,1.467,3.338,3.113-.66,15.877-1.18,31.762-1.739,47.638q-1.5,42.611-2.966,85.231c-.132,3.975-.365,7.973.722,11.933a9.339,9.339,0,0,0,3.828,5.341,13.11,13.11,0,0,0,13.765.349c3.478-2.1,5.124-4.751,5.613-7.624.831-4.9.311-9.813.171-14.712q-1.5-52.836-3.043-105.68c-.225-7.74-.419-15.473-.629-23.214-.031-1.017.023-1.91,2.143-2.314a16.221,16.221,0,0,0,9.891-5.536c2.686-3.183,3.253-6.615,3.175-10.116-.241-11.032-.536-22.065-.683-33.089-.109-7.911-.023-15.815-.023-23.726-.326,0-.66-.008-.986-.008q-1.805,16.234-3.595,32.46c-.419,3.8-.807,7.609-1.188,11.413-.124,1.227-1.04,2.135-3.051,2.461-2.166.349-3.059-.652-4-1.553a2.639,2.639,0,0,1-.738-2q-.71-12.729-1.421-25.457c-.272-4.852-.52-9.712-.776-14.565-1.258,8.641-2.034,17.282-2.81,25.931q-.827,9.258-1.646,18.509c-.116,1.3-1.095,2.275-3.214,2.578a5.145,5.145,0,0,1-4.627-1.661c-.559-.52-.334-1.126-.373-1.692q-1.036-15.058-2.057-30.123-.489-7.1-1-14.2a13.467,13.467,0,0,0-.963,4.13q-1.77,18.6-3.494,37.188a1.98,1.98,0,0,1-.955,1.933,4.987,4.987,0,0,1-3.936.652c-1.933-.536-2.71-1.576-2.8-2.818-.357-4.441-.745-8.882-1.087-13.323Q85.375,267.238,84.432,254.175Z" transform="translate(-77.843 -240.307)" fill="#fff9e4"/>
      </g>
    </g>
    <text id="HOME" transform="translate(175.8 348.283)" fill="#fff9e4" font-size="51" font-family="MyriadPro-Regular, Myriad Pro"><tspan x="0" y="0">HOME</tspan></text>
    <text id="GOODIES" transform="translate(164.497 474.287)" fill="#fff9e4" font-size="41" font-family="MyriadPro-Regular, Myriad Pro"><tspan x="0" y="0">GOODIES</tspan></text>
  </g>
</svg>
